<svg width="346" height="390" viewBox="0 0 346 390" fill="none" xmlns="http://www.w3.org/2000/svg">
<rect width="186.484" height="186.484" transform="matrix(0.866025 0.5 0 1 0 110)" fill="#4C4F69"/>
<path d="M129.783 298.918C129.791 300.612 128.615 301.306 127.152 300.464L113.969 292.893C112.514 292.059 111.335 290.009 111.332 288.323C111.325 286.622 112.503 285.936 113.956 286.769L127.138 294.34C128.596 295.182 129.78 297.226 129.783 298.918ZM125.599 279.723C126.226 281.611 125.665 283.109 124.346 283.075L112.437 282.756C111.124 282.719 109.553 281.161 108.931 279.276C108.3 277.39 108.865 275.894 110.18 275.923L122.087 276.244C123.405 276.284 124.974 277.837 125.599 279.723ZM125.67 313.349C126.287 312.174 125.723 310.029 124.404 308.553L112.469 295.175C111.148 293.694 109.582 293.447 108.962 294.618C108.345 295.793 108.912 297.939 110.233 299.417L122.166 312.796C123.482 314.271 125.056 314.522 125.67 313.349Z" fill="#E6E9EF"/>
<path d="M103.865 257.41C100.121 253.967 96.7648 248.582 95.5968 245.758C93.593 240.909 96.0107 241.348 95.1934 230.581C94.442 220.723 83.2499 204.126 69.6455 195.241C63.4601 191.202 57.027 188.952 50.4357 189.325C33.5092 190.285 26.8018 209.096 39.8738 238.551C51.659 265.102 41.0519 268.156 41.0519 268.156C41.0519 268.156 41.0519 272.623 48.7516 281.301C55.2355 289.277 63.3404 291.84 63.3404 291.84C63.3404 291.84 66.5722 278.96 76.1587 285.607C83.0295 290.748 93.4612 298.333 95.9 297.005C98.1806 295.763 95.5019 291.01 97.3211 284.914C91.0857 280.605 87.6582 275.181 87.3287 270.134C94.2495 274.909 97.1049 274.011 99.0823 272.35C99.0269 270.667 98.8846 267.082 98.7475 264.655C104.869 266.136 107.216 260.491 103.865 257.41Z" fill="#E6E9EF"/>
<rect width="186.484" height="186.484" transform="matrix(0.866025 -0.5 0 1 184 203.242)" fill="#4C4F69"/>
<path d="M244.859 211.651L238.948 215.073L236.053 222.529L242.8 232.209L229.207 240.017L223.487 255.028L274.143 225.781L268.28 217.498L254.448 225.454L244.854 211.653L244.859 211.651ZM271.617 196.202L259.973 203.049L285.306 239.096L291.117 224.032L284.227 214.175L293.934 189.307L290.974 185.101L285.185 188.444L278.381 205.907L271.617 196.202ZM301.461 199.962L276.128 265.25L287.811 258.465L294.748 240.65L314.045 229.589L317 221.963L314.114 217.84L300.551 225.631L307.371 208.123L301.461 199.962ZM253.872 238.941L242.189 245.726L235.252 263.542L215.955 274.602L213 282.223L215.886 286.346L229.449 278.555L222.624 296.056L228.539 304.224L253.872 238.941ZM244.763 265.035L244.737 265.1L244.729 265.085L238.913 280.152L245.803 290.009L236.097 314.877L239.061 319.08L244.85 315.738L244.867 315.698L251.662 298.275L258.413 307.987L270.061 301.132L270.044 301.112L270.087 301.087L244.763 265.035ZM255.813 278.32L261.681 286.601L275.513 278.645L285.111 292.443L291.017 289.023L293.912 281.568L287.165 271.888L300.759 264.08L306.479 249.069L255.813 278.32Z" fill="#E6E9EF"/>
<rect width="186.484" height="186.484" transform="matrix(0.866025 0.5 -0.866025 0.5 172.5 0)" fill="#4C4F69"/>
<path d="M131.591 93.2375C130.151 94.0688 128.848 94.4836 127.683 94.482C126.517 94.4804 125.215 94.0656 123.775 93.2375C121.032 91.6542 119.147 89.8135 118.119 87.7156C117.09 85.6177 116.919 83.5 117.604 81.3625L123.363 64.5L152.57 61.175C156.272 60.7792 159.94 60.8781 163.574 61.4719C167.208 62.0656 170.396 63.1542 173.138 64.7375C174.578 65.5687 175.298 66.3216 175.298 66.9961C175.298 67.6706 174.578 68.4219 173.138 69.25L131.591 93.2375ZM160.386 138.125L109.891 108.972C107.903 109.249 105.933 109.259 103.98 109.003C102.027 108.746 100.261 108.162 98.6817 107.25C97.1021 106.338 96.0051 104.755 95.3908 102.5C94.7765 100.245 94.5023 97.8703 94.5681 95.375C98.8874 95.3354 103.001 95.4937 106.909 95.85C110.817 96.2062 113.559 96.8396 115.136 97.75C116.713 98.6604 117.725 99.6801 118.172 100.809C118.619 101.938 118.6 103.075 118.114 104.219L135.704 114.375L143.932 109.625L135.704 104.875C133.99 103.885 132.893 102.619 132.413 101.075C131.933 99.5312 132.482 98.0271 134.059 96.5625L178.897 70.675C181.434 69.7646 184.039 69.4479 186.713 69.725C189.387 70.0021 191.581 70.6354 193.295 71.625L201.522 76.375L209.749 71.625L192.164 61.4719C190.176 61.749 188.205 61.7593 186.252 61.5027C184.3 61.2462 182.534 60.662 180.954 59.75C179.375 58.838 178.278 57.2547 177.663 55C177.049 52.7453 176.775 50.3703 176.841 47.875C181.16 47.8354 185.273 47.9937 189.181 48.35C193.089 48.7063 195.832 49.3396 197.409 50.25C198.986 51.1604 199.997 52.1801 200.444 53.309C200.891 54.4379 200.874 55.5755 200.391 56.7219L250.886 85.875L213.863 107.25L197.409 97.75C195.146 96.4437 192.405 95.7906 189.185 95.7906C185.966 95.7906 183.222 96.4438 180.954 97.75C178.686 99.0562 177.556 100.64 177.565 102.5C177.573 104.36 178.703 105.944 180.954 107.25L197.409 116.75L160.386 138.125Z" fill="#E6E9EF"/>
</svg>
